<svg id="Layer_1" data-name="Layer 1" xmlns="http://www.w3.org/2000/svg" viewBox="0 0 251.19 96.32"><title>ailogo</title><path d="M111.29,7.68H20A15.84,15.84,0,0,0,4.19,23.52V37.46a1.9,1.9,0,0,0,1.9,1.9H30.17a1.91,1.91,0,0,0,1.91-1.9h0a1.9,1.9,0,0,1,1.9-1.9H97.35a1.9,1.9,0,0,1,1.9,1.9V74.22a1.9,1.9,0,0,1-1.9,1.9H37.88A1.9,1.9,0,0,1,36,73.8l.56-2.53a1.9,1.9,0,0,1,1.86-1.49H80.87A15.84,15.84,0,0,0,96.71,53.94V40a1.9,1.9,0,0,0-1.9-1.9H70.73a1.9,1.9,0,0,0-1.9,1.9h0a1.9,1.9,0,0,1-1.9,1.9H25.74A13.94,13.94,0,0,0,12.13,52.81L4.52,87a14,14,0,0,0,13.61,17h107.1a1.9,1.9,0,0,0,1.9-1.9V23.52A15.84,15.84,0,0,0,111.29,7.68Z" transform="translate(-4.19 -7.68)"/><path d="M253.48,104H194.1a12.47,12.47,0,0,1-12.47-12.47V37.46a1.9,1.9,0,0,0-1.9-1.9h-45a1.9,1.9,0,0,1-1.91-1.9V23.52A15.84,15.84,0,0,1,148.66,7.68H194.1a12.46,12.46,0,0,1,12.46,12.46V74.21a1.91,1.91,0,0,0,1.91,1.9h31.07A15.85,15.85,0,0,1,255.39,92V102.1A1.91,1.91,0,0,1,253.48,104Z" transform="translate(-4.19 -7.68)"/><path d="M253.29,35.57H228.71a15.85,15.85,0,0,1-15.84-15.85V9.58a1.9,1.9,0,0,1,1.9-1.9h38.52a1.9,1.9,0,0,1,1.91,1.9V33.66A1.91,1.91,0,0,1,253.29,35.57Z" transform="translate(-4.19 -7.68)"/><path d="M173.39,104H134.45a1.91,1.91,0,0,1-1.91-1.9V78a1.91,1.91,0,0,1,1.91-1.91h25A15.85,15.85,0,0,1,175.3,92V102.1A1.91,1.91,0,0,1,173.39,104Z" transform="translate(-4.19 -7.68)"/></svg>